<?xml version="1.0" standalone="no"?>
<!DOCTYPE svg PUBLIC "-//W3C//DTD SVG 20010904//EN"
 "http://www.w3.org/TR/2001/REC-SVG-20010904/DTD/svg10.dtd">
<svg version="1.0" xmlns="http://www.w3.org/2000/svg"
 width="360.000000pt" height="360.000000pt" viewBox="0 0 360.000000 360.000000"
 preserveAspectRatio="xMidYMid meet">
<metadata>
Created by potrace 1.11, written by Peter Selinger 2001-2013
</metadata>
<g transform="translate(0.000000,360.000000) scale(0.100000,-0.100000)"
fill="#000000" stroke="none">
<path d="M1247 3124 c-10 -11 -9 -2134 2 -2134 5 0 66 98 136 217 70 120 138
234 150 253 12 19 102 172 200 340 98 168 188 321 200 340 64 100 355 603 355
614 0 8 -6 18 -12 23 -7 6 -141 54 -298 108 -157 54 -298 104 -315 110 -16 7
-39 15 -50 18 -11 3 -85 29 -165 58 -155 55 -191 65 -203 53z"/>
<path d="M2244 2333 c-86 -148 -252 -428 -367 -623 -116 -195 -220 -373 -232
-395 -12 -22 -36 -62 -53 -90 -16 -27 -48 -81 -71 -120 -22 -38 -45 -75 -51
-82 -5 -7 -10 -14 -10 -16 0 -3 -18 -36 -40 -73 -22 -38 -40 -76 -40 -85 0
-29 33 -46 195 -102 173 -60 493 -172 590 -206 123 -44 206 -71 219 -71 39 0
39 -8 38 1058 0 1172 1 1072 -11 1072 -5 0 -80 -120 -167 -267z"/>
</g>
</svg>
